# xmcd CD database file
#
# Track frame offsets:
#	150
#	23500
#	42967
#	74252
#	90342
#	116180
#	136515
#	157485
#
# Disc length: 2412 seconds
#
# Revision: 1
# Processed by: cddbd v1.4PL0 Copyright (c) Steve Scherf et al.
# Submitted via: CDex 1.50Beta7
#
DISCID=62096a08
DTITLE=SERGIO VARGAS - Historia De ÉXitos vol.2
DYEAR=1994
DGENRE=Salsa
TTITLE0=Bamboleo - Marola - La Novia (Medley)
TTITLE1=Días De Junio - Perla Negra (Medley)
TTITLE2=Mujeres Vamonos - Yambalaya (Medley)
TTITLE3=La Incondicional
TTITLE4=La Carta - Lástima De Tanto Amor - Por Ella (Medley)
TTITLE5=Muñeco De Trapo
TTITLE6=Corazón De Piedra - No Eres Una Más (Medley)
TTITLE7=La Ventanita - La Pastilla (Medley)
EXTD=YEAR: 1994
EXTT0=
EXTT1=
EXTT2=
EXTT3=
EXTT4=
EXTT5=
EXTT6=
EXTT7=
PLAYORDER=
